<?xml version="1.0" standalone="no"?>
<!DOCTYPE svg PUBLIC "-//W3C//DTD SVG 20010904//EN"
 "http://www.w3.org/TR/2001/REC-SVG-20010904/DTD/svg10.dtd">
<svg version="1.0" xmlns="http://www.w3.org/2000/svg"
 width="500.000000pt" height="500.000000pt" viewBox="0 0 500.000000 500.000000"
 preserveAspectRatio="xMidYMid meet">
<metadata>
Created by potrace 1.11, written by Peter Selinger 2001-2013
</metadata>
<g transform="translate(0.000000,500.000000) scale(0.100000,-0.100000)"
fill="#000000" stroke="none">
<path d="M2250 4679 c-101 -12 -270 -47 -285 -59 -6 -5 -15 -7 -18 -3 -4 3
-12 1 -19 -5 -7 -6 -16 -11 -20 -11 -5 -1 -9 -1 -10 -2 -2 0 -11 -2 -20 -5
-10 -2 -26 -6 -35 -8 -10 -3 -18 -5 -18 -6 0 -2 -22 -7 -50 -13 -8 -2 -18 -6
-21 -10 -4 -4 -16 -7 -26 -7 -10 0 -18 -5 -18 -10 0 -6 -3 -9 -7 -9 -8 1 -12
0 -30 -6 -5 -2 -18 -6 -30 -10 -13 -4 -23 -12 -23 -17 0 -5 -4 -6 -10 -3 -5 3
-10 1 -10 -5 0 -6 -4 -9 -9 -6 -5 3 -14 -1 -21 -9 -7 -8 -16 -12 -21 -9 -5 3
-9 0 -9 -6 0 -6 -4 -9 -9 -6 -4 3 -17 -1 -27 -9 -10 -8 -25 -15 -32 -15 -7 0
-18 -5 -25 -10 -15 -13 -110 -74 -117 -75 -3 0 -15 -9 -28 -20 -12 -11 -26
-20 -30 -20 -8 0 -26 -14 -65 -50 -12 -12 -40 -33 -62 -48 -22 -15 -36 -27
-31 -27 4 0 -21 -24 -55 -52 -35 -29 -81 -73 -104 -97 -59 -65 -88 -90 -96
-86 -4 3 -6 -3 -5 -13 0 -9 -5 -16 -12 -14 -8 1 -11 -2 -7 -8 3 -5 -5 -21 -19
-35 -15 -14 -26 -28 -26 -31 0 -3 -11 -20 -25 -38 -14 -18 -25 -36 -25 -39 0
-4 -9 -16 -20 -27 -11 -11 -20 -27 -20 -35 0 -8 -3 -15 -8 -15 -4 0 -16 -16
-26 -35 -11 -19 -23 -35 -28 -35 -5 0 -7 -4 -3 -9 3 -5 -1 -15 -8 -23 -7 -7
-22 -32 -32 -55 -10 -24 -23 -43 -28 -43 -5 0 -7 -6 -4 -14 3 -8 -1 -20 -8
-26 -8 -7 -12 -16 -9 -21 3 -5 0 -9 -6 -9 -7 0 -10 -6 -8 -12 3 -7 -1 -19 -9
-26 -7 -8 -11 -18 -8 -23 4 -5 1 -9 -4 -9 -6 0 -11 -8 -11 -18 0 -10 -5 -23
-12 -30 -7 -7 -8 -12 -4 -12 5 0 3 -7 -4 -15 -7 -9 -10 -18 -6 -22 3 -3 -1
-15 -11 -25 -9 -10 -13 -18 -10 -18 3 0 0 -18 -8 -39 -7 -22 -11 -42 -8 -45 4
-3 1 -6 -4 -6 -6 0 -10 -8 -8 -17 1 -10 0 -22 -4 -28 -3 -5 -7 -19 -9 -30 -5
-30 -10 -50 -12 -50 -1 0 -4 -11 -6 -25 -8 -51 -13 -86 -19 -120 -3 -19 -8
-55 -11 -80 -7 -64 -11 -423 -5 -435 3 -5 7 -28 8 -50 3 -53 18 -160 23 -160
1 0 3 -13 5 -30 1 -16 3 -30 4 -30 3 0 11 -31 15 -60 2 -11 4 -20 6 -20 1 0 3
-9 5 -20 4 -21 12 -57 15 -65 1 -3 2 -8 1 -12 0 -5 3 -8 7 -8 5 0 9 -7 10 -15
1 -8 3 -22 4 -30 1 -8 5 -15 10 -15 5 0 6 -5 3 -10 -4 -6 -1 -17 5 -25 7 -8
10 -15 6 -15 -4 0 0 -10 9 -23 8 -12 16 -32 18 -44 1 -12 8 -28 15 -35 6 -8 9
-18 5 -21 -3 -4 -1 -7 6 -7 7 0 9 -4 6 -10 -3 -5 -1 -10 6 -10 7 0 9 -3 6 -7
-4 -3 0 -15 10 -25 9 -10 12 -18 8 -18 -4 0 0 -8 9 -19 9 -10 16 -22 14 -27
-1 -5 11 -29 28 -54 17 -25 34 -55 38 -67 4 -13 12 -23 17 -23 5 0 9 -9 9 -21
0 -13 4 -18 12 -13 7 5 9 0 6 -14 -3 -12 -3 -21 1 -20 20 2 31 -4 31 -17 0 -8
5 -15 10 -15 6 0 10 -5 10 -10 0 -11 11 -26 48 -66 12 -14 22 -27 22 -31 0 -8
76 -98 126 -146 24 -24 41 -47 36 -51 -4 -4 -2 -6 4 -4 9 3 66 -40 134 -102
38 -34 59 -51 98 -78 18 -13 30 -27 27 -32 -3 -4 2 -11 11 -14 10 -4 13 -2 9
7 -4 6 -1 5 7 -4 15 -18 79 -54 91 -51 4 1 7 -2 7 -8 0 -5 16 -17 35 -26 19
-9 35 -21 35 -27 0 -6 3 -7 6 -4 4 3 16 1 28 -5 11 -7 24 -11 29 -10 4 1 7 -3
7 -10 0 -6 3 -8 6 -5 4 4 19 -2 34 -13 15 -11 30 -17 34 -13 3 3 6 1 6 -6 0
-7 4 -10 9 -7 5 3 14 -1 21 -9 7 -8 16 -12 21 -9 5 3 9 0 9 -6 0 -6 4 -9 9 -5
5 3 12 1 16 -5 4 -6 11 -8 16 -5 5 4 9 1 9 -5 0 -7 7 -9 16 -6 12 5 15 2 10
-10 -5 -14 -4 -15 9 -4 8 7 15 8 15 3 0 -5 6 -10 13 -11 19 -1 49 -9 82 -22
17 -6 31 -11 33 -11 1 1 3 1 5 0 1 0 11 -3 22 -5 34 -8 50 -12 50 -14 0 -1 9
-3 19 -5 11 -2 31 -7 45 -11 14 -4 34 -8 44 -9 9 -2 18 -4 20 -5 1 -1 13 -3
27 -5 14 -1 41 -6 60 -10 91 -19 540 -33 540 -17 0 4 18 7 40 6 22 -1 40 2 40
5 0 4 15 7 33 8 34 2 74 8 122 18 17 4 37 8 45 10 8 2 15 4 15 5 0 1 7 3 15 5
8 2 29 6 45 10 17 3 36 7 43 7 6 1 12 4 12 8 0 4 6 7 13 8 14 1 52 10 52 12 0
1 10 3 23 6 13 2 36 11 51 19 16 8 31 11 35 8 3 -4 6 -1 6 6 0 7 4 10 9 6 5
-3 12 -1 16 5 4 6 11 8 16 5 5 -4 9 -1 9 5 0 6 5 8 10 5 6 -3 10 -1 10 5 0 6
5 8 10 5 6 -3 10 -1 10 4 0 6 3 11 8 10 15 -2 52 14 52 23 0 5 5 6 10 3 6 -3
10 -1 10 5 0 6 5 8 10 5 6 -3 10 -1 10 5 0 6 5 8 10 5 6 -3 10 -2 10 4 0 6 7
8 15 5 8 -4 15 -1 15 5 0 6 7 11 15 11 8 0 24 9 35 20 11 11 20 17 20 13 0 -3
8 1 18 9 9 9 27 19 40 22 12 4 22 12 22 17 0 5 5 9 10 9 6 0 21 9 33 21 12 12
38 31 57 44 19 12 47 35 62 50 16 16 32 24 39 19 8 -4 9 -3 5 4 -4 7 -2 12 3
12 6 0 11 7 11 15 0 8 6 15 13 15 7 0 28 16 47 35 18 19 38 31 44 28 6 -3 8
-3 4 1 -9 10 42 67 54 60 5 -3 7 0 6 8 -2 7 4 12 12 10 8 -2 12 0 8 4 -4 4 22
42 57 84 36 43 65 81 65 84 0 3 14 20 30 38 17 17 30 37 30 44 0 8 5 14 10 14
6 0 10 5 10 11 0 12 54 93 82 123 10 11 18 27 18 35 0 9 9 31 20 49 11 17 16
32 12 32 -4 0 -1 4 6 9 7 4 15 17 16 27 2 10 9 18 14 17 6 -2 9 3 6 11 -3 8 0
17 5 21 6 3 9 11 6 16 -4 5 -1 9 4 9 6 0 10 3 9 8 -1 4 3 17 10 29 7 13 10 23
7 23 -3 0 1 13 10 30 8 16 16 33 16 37 1 5 5 19 10 31 5 13 7 28 3 33 -3 5 0
9 7 9 7 0 10 3 6 6 -3 4 0 22 8 41 8 19 14 37 14 41 -1 4 0 9 1 12 2 7 10 41
15 65 2 11 7 31 10 45 4 14 9 39 11 55 3 17 7 44 10 60 3 17 6 51 7 78 0 26 3
47 6 47 4 0 6 91 5 203 -1 111 -3 202 -4 202 -1 0 -4 20 -6 45 -5 63 -11 115
-14 118 -1 1 -4 11 -5 22 -1 11 -4 22 -5 25 -1 3 -3 13 -4 23 -1 9 -5 26 -9
37 -3 11 -9 34 -12 50 -9 47 -10 49 -18 63 -5 6 -6 12 -3 12 3 0 -1 18 -9 39
-7 22 -11 41 -9 44 2 2 -2 10 -10 16 -8 7 -12 19 -9 27 3 8 1 14 -4 14 -5 0
-10 6 -11 13 0 6 -3 19 -5 27 -16 50 -20 60 -28 60 -5 0 -6 7 -3 15 4 8 1 15
-5 15 -6 0 -10 3 -9 8 1 4 -8 26 -20 48 -11 23 -18 44 -15 48 4 3 2 6 -4 6
-10 0 -26 36 -24 53 1 4 -3 7 -8 7 -5 0 -14 14 -20 30 -5 17 -15 30 -20 30 -6
0 -11 5 -11 10 0 10 -48 89 -61 100 -9 8 -69 98 -69 104 0 3 -8 14 -17 25 -78
82 -102 114 -71 95 7 -4 8 -3 4 5 -4 6 -11 9 -15 7 -3 -3 -42 31 -86 75 -44
43 -88 82 -97 85 -10 3 -16 9 -13 14 3 5 -4 11 -15 15 -11 4 -18 11 -15 16 4
5 2 9 -4 9 -6 0 -24 12 -40 28 -64 59 -79 72 -86 72 -5 0 -24 12 -44 27 -20
16 -38 28 -41 28 -3 0 -25 14 -50 29 -25 16 -51 29 -57 29 -7 0 -13 3 -13 7 0
3 -13 14 -30 23 -16 10 -30 15 -30 12 0 -4 -7 1 -16 9 -8 9 -20 14 -25 11 -5
-4 -9 -1 -9 5 0 6 -4 8 -10 5 -5 -3 -10 -1 -10 5 0 6 -4 8 -10 5 -5 -3 -10 -1
-10 5 0 6 -4 9 -9 6 -5 -3 -14 1 -21 9 -7 8 -16 12 -21 9 -5 -3 -9 0 -9 6 0 7
-7 10 -15 6 -8 -3 -15 -1 -15 5 0 6 -4 8 -9 5 -5 -3 -11 0 -14 8 -4 9 -14 12
-26 9 -12 -3 -21 -1 -21 5 0 6 -8 9 -17 8 -10 -2 -28 4 -40 12 -13 8 -23 11
-23 7 0 -4 -7 -2 -15 5 -8 7 -15 9 -15 5 0 -4 -6 -3 -12 2 -7 6 -21 9 -30 8
-10 -2 -18 2 -18 8 0 5 -3 7 -7 4 -3 -4 -11 -3 -17 2 -15 13 -198 48 -311 61
-106 12 -398 11 -505 -1z"/>
<path d="M4170 3946 c0 -2 7 -7 16 -10 8 -3 12 -2 9 4 -6 10 -25 14 -25 6z"/>
</g>
</svg>
